
 === trackvideo === 

001  page_000 V     C        00:00:00:00 00:00:05:17 00:00:00:00 00:00:05:17
* FROM CLIP NAME: page-000.jpg
002  page_001 V     C        00:00:00:00 00:00:04:29 00:00:05:17 00:00:10:16
* FROM CLIP NAME: page-001.jpg
003  page_002 V     C        00:00:00:00 00:00:05:00 00:00:10:16 00:00:15:16
* FROM CLIP NAME: page-002.jpg
004  page_003 V     C        00:00:00:00 00:00:05:26 00:00:15:16 00:00:21:12
* FROM CLIP NAME: page-003.jpg
005  page_004 V     C        00:00:00:00 00:00:05:27 00:00:21:12 00:00:27:09
* FROM CLIP NAME: page-004.jpg
006  page_005 V     C        00:00:00:00 00:00:06:19 00:00:27:09 00:00:33:28
* FROM CLIP NAME: page-005.jpg
007  page_006 V     C        00:00:00:00 00:00:04:25 00:00:33:28 00:00:38:23
* FROM CLIP NAME: page-006.jpg
008  page_007 V     C        00:00:00:00 00:00:06:09 00:00:38:23 00:00:45:02
* FROM CLIP NAME: page-007.jpg
009  page_008 V     C        00:00:00:00 00:00:07:16 00:00:45:02 00:00:52:18
* FROM CLIP NAME: page-008.jpg
010  page_009 V     C        00:00:00:00 00:00:06:27 00:00:52:18 00:00:59:15
* FROM CLIP NAME: page-009.jpg

 === trackaudio === 

001  speech_1 A     C        00:00:00:00 00:00:05:01 00:00:00:00 00:00:05:01
* FROM CLIP NAME: speech-1-917ca8b132d552a800c4e0f9a3945ca1.wav
002  speech_2 A     C        00:00:00:00 00:00:04:13 00:00:05:16 00:00:09:29
* FROM CLIP NAME: speech-2-c9fdfffcefc24d86adf8c176c07f2840.wav
003  speech_3 A     C        00:00:00:00 00:00:04:14 00:00:10:14 00:00:14:28
* FROM CLIP NAME: speech-3-d82a3958f0e9fecf5e2a6eab9eec756b.wav
004  speech_4 A     C        00:00:00:00 00:00:05:10 00:00:15:13 00:00:20:23
* FROM CLIP NAME: speech-4-92f5c31cf82bf4231247caff6f7e00c2.wav
005  speech_5 A     C        00:00:00:00 00:00:05:11 00:00:21:08 00:00:26:19
* FROM CLIP NAME: speech-5-6a983f67f42a9196ccd9765a44d13838.wav
006  speech_6 A     C        00:00:00:00 00:00:06:03 00:00:27:04 00:00:33:07
* FROM CLIP NAME: speech-6-869c7723850ae4408ce9d47255227963.wav
007  speech_7 A     C        00:00:00:00 00:00:04:09 00:00:33:22 00:00:38:01
* FROM CLIP NAME: speech-7-9ac4991ed94364522c780dcbb1811fbf.wav
008  speech_8 A     C        00:00:00:00 00:00:05:23 00:00:38:16 00:00:44:09
* FROM CLIP NAME: speech-8-02cac6d21c7f50e5d44878df19f4d7cc.wav
009  speech_9 A     C        00:00:00:00 00:00:06:29 00:00:44:24 00:00:51:23
* FROM CLIP NAME: speech-9-61636664d15dcc04b55c9a5b36e045f1.wav
010  speech_1 A     C        00:00:00:00 00:00:06:10 00:00:52:08 00:00:58:18
* FROM CLIP NAME: speech-10-15e28cd89f0a0de4feeebb30451876a6.wav

 === trackaudio2 === 

001  music    A     C        00:00:00:00 00:02:15:00 00:00:00:00 00:02:15:00
* FROM CLIP NAME: music.mp3

 === playlist0 === 


 === playlist1 === 


 === playlist2 === 


 === playlist3 === 


 === playlist4 === 


 === playlist5 === 


 === playlist6 === 

