<svg xmlns="http://www.w3.org/2000/svg" width="427.49335937499995" height="324" viewBox="0 0 427.49335937499995 324"><rect width="427.49335937499995" height="324" fill="#000000"/><line x1="0" y1="46" x2="427.49335937499995" y2="46" stroke="rgba(255, 255, 255, 0.15)" stroke-width="1"/><line x1="0" y1="278" x2="427.49335937499995" y2="278" stroke="rgba(255, 255, 255, 0.15)" stroke-width="1"/><line x1="46" y1="0" x2="46" y2="324" stroke="rgba(255, 255, 255, 0.15)" stroke-width="1"/><line x1="381.49335937499995" y1="0" x2="381.49335937499995" y2="324" stroke="rgba(255, 255, 255, 0.15)" stroke-width="1"/><path d="M31,46 L61,46 M46,31 L46,61" stroke="rgba(255, 255, 255, 0.15)" stroke-width="1.5"/><path d="M366.49335937499995,278 L396.49335937499995,278 M381.49335937499995,263 L381.49335937499995,293" stroke="rgba(255, 255, 255, 0.15)" stroke-width="1.5"/><svg viewBox="0 0 327.49335937499995 224.00000000000003" width="327.49335937499995" height="224.00000000000003" x="50" y="50"><rect id="bg" fill="#000" width="327.49335937499995" height="224.00000000000003" rx="4"/><g id="tokens" transform="translate(30.7890625, 22.400000000000002)"><text font-family="Consolas" font-size="14" y="44.800000000000004" letter-spacing="0.7000000000000001px"><tspan x="0" fill="#F97583">function</tspan><tspan x="67.178125" fill="#E1E4E8"/><tspan x="75.575390625" fill="#B392F0">hello</tspan><tspan x="117.56171874999998" fill="#E1E4E8">() {</tspan></text><text font-family="Consolas" font-size="14" y="67.2" letter-spacing="0.7000000000000001px"><tspan x="0" fill="#E1E4E8"/><tspan x="16.79453125" fill="#E1E4E8">console.</tspan><tspan x="83.97265625" fill="#B392F0">log</tspan><tspan x="109.164453125" fill="#E1E4E8">(</tspan><tspan x="117.56171874999998" fill="#9ECBFF">"Hello, world!"</tspan><tspan x="243.52070312499998" fill="#E1E4E8">);</tspan></text><text font-family="Consolas" font-size="14" y="89.60000000000001" letter-spacing="0.7000000000000001px"><tspan x="0" fill="#E1E4E8"/><tspan x="16.79453125" fill="#F97583">return</tspan><tspan x="67.178125" fill="#E1E4E8"/><tspan x="75.575390625" fill="#79B8FF">42</tspan><tspan x="92.36992187499999" fill="#E1E4E8">;</tspan></text><text font-family="Consolas" font-size="14" y="112.00000000000001" letter-spacing="0.7000000000000001px"><tspan x="0" fill="#E1E4E8">}</tspan></text><text font-family="Consolas" font-size="14" y="156.8" letter-spacing="0.7000000000000001px"><tspan x="0" fill="#F97583">const</tspan><tspan x="41.986328125" fill="#E1E4E8"/><tspan x="50.383593749999996" fill="#79B8FF">result</tspan><tspan x="100.76718749999999" fill="#E1E4E8"/><tspan x="109.164453125" fill="#F97583">=</tspan><tspan x="117.56171874999998" fill="#E1E4E8"/><tspan x="125.95898437499999" fill="#B392F0">hello</tspan><tspan x="167.9453125" fill="#E1E4E8">();</tspan></text></g></svg></svg>