<svg viewBox="0 0 200.00144531249998 158.4" width="200.00144531249998" height="158.4" xmlns="http://www.w3.org/2000/svg">
<rect id="bg" fill="#282c34" width="200.00144531249998" height="158.4" rx="4"></rect><g id="tokens" transform="translate(30.7890625, 28.8)"><text font-family="Consolas" font-size="9" y="14.4" transform="translate(0, 0)" fill="#F97583">function</text><text font-family="Consolas" font-size="9" y="14.4" transform="translate(41.0259375, 0)" fill="#E1E4E8"> </text><text font-family="Consolas" font-size="9" y="14.4" transform="translate(46.1541796875, 0)" fill="#B392F0">hello</text><text font-family="Consolas" font-size="9" y="14.4" transform="translate(71.795390625, 0)" fill="#E1E4E8">() {</text>
<text font-family="Consolas" font-size="9" y="28.8" transform="translate(0, 0)" fill="#E1E4E8">  </text><text font-family="Consolas" font-size="9" y="28.8" transform="translate(10.256484375, 0)" fill="#E1E4E8">console.</text><text font-family="Consolas" font-size="9" y="28.8" transform="translate(51.282421875, 0)" fill="#B392F0">log</text><text font-family="Consolas" font-size="9" y="28.8" transform="translate(66.6671484375, 0)" fill="#E1E4E8">(</text><text font-family="Consolas" font-size="9" y="28.8" transform="translate(71.795390625, 0)" fill="#9ECBFF">&quot;Hello, world!&quot;</text><text font-family="Consolas" font-size="9" y="28.8" transform="translate(148.7190234375, 0)" fill="#E1E4E8">);</text>
<text font-family="Consolas" font-size="9" y="43.2" transform="translate(0, 0)" fill="#E1E4E8">  </text><text font-family="Consolas" font-size="9" y="43.2" transform="translate(10.256484375, 0)" fill="#F97583">return</text><text font-family="Consolas" font-size="9" y="43.2" transform="translate(41.0259375, 0)" fill="#E1E4E8"> </text><text font-family="Consolas" font-size="9" y="43.2" transform="translate(46.1541796875, 0)" fill="#79B8FF">42</text><text font-family="Consolas" font-size="9" y="43.2" transform="translate(56.4106640625, 0)" fill="#E1E4E8">;</text>
<text font-family="Consolas" font-size="9" y="57.6" transform="translate(0, 0)" fill="#E1E4E8">}</text>

<text font-family="Consolas" font-size="9" y="86.4" transform="translate(0, 0)" fill="#F97583">const</text><text font-family="Consolas" font-size="9" y="86.4" transform="translate(25.6412109375, 0)" fill="#E1E4E8"> </text><text font-family="Consolas" font-size="9" y="86.4" transform="translate(30.769453125, 0)" fill="#79B8FF">result</text><text font-family="Consolas" font-size="9" y="86.4" transform="translate(61.53890625, 0)" fill="#E1E4E8"> </text><text font-family="Consolas" font-size="9" y="86.4" transform="translate(66.6671484375, 0)" fill="#F97583">=</text><text font-family="Consolas" font-size="9" y="86.4" transform="translate(71.795390625, 0)" fill="#E1E4E8"> </text><text font-family="Consolas" font-size="9" y="86.4" transform="translate(76.92363281249999, 0)" fill="#B392F0">hello</text><text font-family="Consolas" font-size="9" y="86.4" transform="translate(102.56484375, 0)" fill="#E1E4E8">();</text></g>
</svg>
