<svg viewBox="0 0 400.00289062499996 316.8" width="400.00289062499996" height="316.8" xmlns="http://www.w3.org/2000/svg">
<rect id="bg" fill="#282c34" width="400.00289062499996" height="316.8" rx="4"></rect><g id="tokens" transform="translate(30.7890625, 57.6)"><text font-family="Consolas" font-size="18" y="28.8" transform="translate(0, 0)" fill="#F97583">function</text><text font-family="Consolas" font-size="18" y="28.8" transform="translate(82.051875, 0)" fill="#E1E4E8"> </text><text font-family="Consolas" font-size="18" y="28.8" transform="translate(92.308359375, 0)" fill="#B392F0">hello</text><text font-family="Consolas" font-size="18" y="28.8" transform="translate(143.59078125, 0)" fill="#E1E4E8">() {</text>
<text font-family="Consolas" font-size="18" y="57.6" transform="translate(0, 0)" fill="#E1E4E8">  </text><text font-family="Consolas" font-size="18" y="57.6" transform="translate(20.51296875, 0)" fill="#E1E4E8">console.</text><text font-family="Consolas" font-size="18" y="57.6" transform="translate(102.56484375, 0)" fill="#B392F0">log</text><text font-family="Consolas" font-size="18" y="57.6" transform="translate(133.334296875, 0)" fill="#E1E4E8">(</text><text font-family="Consolas" font-size="18" y="57.6" transform="translate(143.59078125, 0)" fill="#9ECBFF">&quot;Hello, world!&quot;</text><text font-family="Consolas" font-size="18" y="57.6" transform="translate(297.438046875, 0)" fill="#E1E4E8">);</text>
<text font-family="Consolas" font-size="18" y="86.4" transform="translate(0, 0)" fill="#E1E4E8">  </text><text font-family="Consolas" font-size="18" y="86.4" transform="translate(20.51296875, 0)" fill="#F97583">return</text><text font-family="Consolas" font-size="18" y="86.4" transform="translate(82.051875, 0)" fill="#E1E4E8"> </text><text font-family="Consolas" font-size="18" y="86.4" transform="translate(92.308359375, 0)" fill="#79B8FF">42</text><text font-family="Consolas" font-size="18" y="86.4" transform="translate(112.821328125, 0)" fill="#E1E4E8">;</text>
<text font-family="Consolas" font-size="18" y="115.2" transform="translate(0, 0)" fill="#E1E4E8">}</text>

<text font-family="Consolas" font-size="18" y="172.8" transform="translate(0, 0)" fill="#F97583">const</text><text font-family="Consolas" font-size="18" y="172.8" transform="translate(51.282421875, 0)" fill="#E1E4E8"> </text><text font-family="Consolas" font-size="18" y="172.8" transform="translate(61.53890625, 0)" fill="#79B8FF">result</text><text font-family="Consolas" font-size="18" y="172.8" transform="translate(123.0778125, 0)" fill="#E1E4E8"> </text><text font-family="Consolas" font-size="18" y="172.8" transform="translate(133.334296875, 0)" fill="#F97583">=</text><text font-family="Consolas" font-size="18" y="172.8" transform="translate(143.59078125, 0)" fill="#E1E4E8"> </text><text font-family="Consolas" font-size="18" y="172.8" transform="translate(153.84726562499998, 0)" fill="#B392F0">hello</text><text font-family="Consolas" font-size="18" y="172.8" transform="translate(205.1296875, 0)" fill="#E1E4E8">();</text></g>
</svg>
