<svg viewBox="0 0 192.9814453125 158.4" width="192.9814453125" height="158.4" xmlns="http://www.w3.org/2000/svg">
<rect id="bg" fill="#282c34" width="192.9814453125" height="158.4" rx="4"></rect><g id="tokens" transform="translate(30.7890625, 28.8)"><text font-family="Consolas" font-size="9" y="14.4" transform="translate(0, 0)" fill="#F97583">function</text><text font-family="Consolas" font-size="9" y="14.4" transform="translate(39.5859375, 0)" fill="#E1E4E8"> </text><text font-family="Consolas" font-size="9" y="14.4" transform="translate(44.5341796875, 0)" fill="#B392F0">hello</text><text font-family="Consolas" font-size="9" y="14.4" transform="translate(69.275390625, 0)" fill="#E1E4E8">() {</text>
<text font-family="Consolas" font-size="9" y="28.8" transform="translate(0, 0)" fill="#E1E4E8">  </text><text font-family="Consolas" font-size="9" y="28.8" transform="translate(9.896484375, 0)" fill="#E1E4E8">console.</text><text font-family="Consolas" font-size="9" y="28.8" transform="translate(49.482421875, 0)" fill="#B392F0">log</text><text font-family="Consolas" font-size="9" y="28.8" transform="translate(64.3271484375, 0)" fill="#E1E4E8">(</text><text font-family="Consolas" font-size="9" y="28.8" transform="translate(69.275390625, 0)" fill="#9ECBFF">&quot;Hello, world!&quot;</text><text font-family="Consolas" font-size="9" y="28.8" transform="translate(143.4990234375, 0)" fill="#E1E4E8">);</text>
<text font-family="Consolas" font-size="9" y="43.2" transform="translate(0, 0)" fill="#E1E4E8">  </text><text font-family="Consolas" font-size="9" y="43.2" transform="translate(9.896484375, 0)" fill="#F97583">return</text><text font-family="Consolas" font-size="9" y="43.2" transform="translate(39.5859375, 0)" fill="#E1E4E8"> </text><text font-family="Consolas" font-size="9" y="43.2" transform="translate(44.5341796875, 0)" fill="#79B8FF">42</text><text font-family="Consolas" font-size="9" y="43.2" transform="translate(54.4306640625, 0)" fill="#E1E4E8">;</text>
<text font-family="Consolas" font-size="9" y="57.6" transform="translate(0, 0)" fill="#E1E4E8">}</text>

<text font-family="Consolas" font-size="9" y="86.4" transform="translate(0, 0)" fill="#F97583">const</text><text font-family="Consolas" font-size="9" y="86.4" transform="translate(24.7412109375, 0)" fill="#E1E4E8"> </text><text font-family="Consolas" font-size="9" y="86.4" transform="translate(29.689453125, 0)" fill="#79B8FF">result</text><text font-family="Consolas" font-size="9" y="86.4" transform="translate(59.37890625, 0)" fill="#E1E4E8"> </text><text font-family="Consolas" font-size="9" y="86.4" transform="translate(64.3271484375, 0)" fill="#F97583">=</text><text font-family="Consolas" font-size="9" y="86.4" transform="translate(69.275390625, 0)" fill="#E1E4E8"> </text><text font-family="Consolas" font-size="9" y="86.4" transform="translate(74.2236328125, 0)" fill="#B392F0">hello</text><text font-family="Consolas" font-size="9" y="86.4" transform="translate(98.96484375, 0)" fill="#E1E4E8">();</text></g>
</svg>
