<svg viewBox="0 0 420.5471824596774 316.8" width="420.5471824596774" height="316.8" xmlns="http://www.w3.org/2000/svg">
<rect id="bg" fill="#282c34" width="420.5471824596774" height="316.8" rx="4"></rect><g id="tokens" transform="translate(32.427923387096776, 57.6)"><text font-family="Courier" font-size="18" y="28.8" transform="translate(0, 0)" fill="#F97583">function</text><text font-family="Courier" font-size="18" y="28.8" transform="translate(86.26608870967742, 0)" fill="#E1E4E8"> </text><text font-family="Courier" font-size="18" y="28.8" transform="translate(97.0493497983871, 0)" fill="#B392F0">hello</text><text font-family="Courier" font-size="18" y="28.8" transform="translate(150.96565524193548, 0)" fill="#E1E4E8">() {</text>
<text font-family="Courier" font-size="18" y="57.6" transform="translate(0, 0)" fill="#E1E4E8">  </text><text font-family="Courier" font-size="18" y="57.6" transform="translate(21.566522177419355, 0)" fill="#E1E4E8">console.</text><text font-family="Courier" font-size="18" y="57.6" transform="translate(107.83261088709678, 0)" fill="#B392F0">log</text><text font-family="Courier" font-size="18" y="57.6" transform="translate(140.1823941532258, 0)" fill="#E1E4E8">(</text><text font-family="Courier" font-size="18" y="57.6" transform="translate(150.96565524193548, 0)" fill="#9ECBFF">&quot;Hello, world!&quot;</text><text font-family="Courier" font-size="18" y="57.6" transform="translate(312.71457157258067, 0)" fill="#E1E4E8">);</text>
<text font-family="Courier" font-size="18" y="86.4" transform="translate(0, 0)" fill="#E1E4E8">  </text><text font-family="Courier" font-size="18" y="86.4" transform="translate(21.566522177419355, 0)" fill="#F97583">return</text><text font-family="Courier" font-size="18" y="86.4" transform="translate(86.26608870967742, 0)" fill="#E1E4E8"> </text><text font-family="Courier" font-size="18" y="86.4" transform="translate(97.0493497983871, 0)" fill="#79B8FF">42</text><text font-family="Courier" font-size="18" y="86.4" transform="translate(118.61587197580646, 0)" fill="#E1E4E8">;</text>
<text font-family="Courier" font-size="18" y="115.2" transform="translate(0, 0)" fill="#E1E4E8">}</text>

<text font-family="Courier" font-size="18" y="172.8" transform="translate(0, 0)" fill="#F97583">const</text><text font-family="Courier" font-size="18" y="172.8" transform="translate(53.91630544354839, 0)" fill="#E1E4E8"> </text><text font-family="Courier" font-size="18" y="172.8" transform="translate(64.69956653225806, 0)" fill="#79B8FF">result</text><text font-family="Courier" font-size="18" y="172.8" transform="translate(129.39913306451612, 0)" fill="#E1E4E8"> </text><text font-family="Courier" font-size="18" y="172.8" transform="translate(140.1823941532258, 0)" fill="#F97583">=</text><text font-family="Courier" font-size="18" y="172.8" transform="translate(150.96565524193548, 0)" fill="#E1E4E8"> </text><text font-family="Courier" font-size="18" y="172.8" transform="translate(161.74891633064516, 0)" fill="#B392F0">hello</text><text font-family="Courier" font-size="18" y="172.8" transform="translate(215.66522177419355, 0)" fill="#E1E4E8">();</text></g>
</svg>
