<svg viewBox="0 0 210.2735912298387 158.4" width="210.2735912298387" height="158.4" xmlns="http://www.w3.org/2000/svg">
<rect id="bg" fill="#282c34" width="210.2735912298387" height="158.4" rx="4"></rect><g id="tokens" transform="translate(32.427923387096776, 28.8)"><text font-family="Courier" font-size="9" y="14.4" transform="translate(0, 0)" fill="#F97583">function</text><text font-family="Courier" font-size="9" y="14.4" transform="translate(43.13304435483871, 0)" fill="#E1E4E8"> </text><text font-family="Courier" font-size="9" y="14.4" transform="translate(48.52467489919355, 0)" fill="#B392F0">hello</text><text font-family="Courier" font-size="9" y="14.4" transform="translate(75.48282762096774, 0)" fill="#E1E4E8">() {</text>
<text font-family="Courier" font-size="9" y="28.8" transform="translate(0, 0)" fill="#E1E4E8">  </text><text font-family="Courier" font-size="9" y="28.8" transform="translate(10.783261088709677, 0)" fill="#E1E4E8">console.</text><text font-family="Courier" font-size="9" y="28.8" transform="translate(53.91630544354839, 0)" fill="#B392F0">log</text><text font-family="Courier" font-size="9" y="28.8" transform="translate(70.0911970766129, 0)" fill="#E1E4E8">(</text><text font-family="Courier" font-size="9" y="28.8" transform="translate(75.48282762096774, 0)" fill="#9ECBFF">&quot;Hello, world!&quot;</text><text font-family="Courier" font-size="9" y="28.8" transform="translate(156.35728578629033, 0)" fill="#E1E4E8">);</text>
<text font-family="Courier" font-size="9" y="43.2" transform="translate(0, 0)" fill="#E1E4E8">  </text><text font-family="Courier" font-size="9" y="43.2" transform="translate(10.783261088709677, 0)" fill="#F97583">return</text><text font-family="Courier" font-size="9" y="43.2" transform="translate(43.13304435483871, 0)" fill="#E1E4E8"> </text><text font-family="Courier" font-size="9" y="43.2" transform="translate(48.52467489919355, 0)" fill="#79B8FF">42</text><text font-family="Courier" font-size="9" y="43.2" transform="translate(59.30793598790323, 0)" fill="#E1E4E8">;</text>
<text font-family="Courier" font-size="9" y="57.6" transform="translate(0, 0)" fill="#E1E4E8">}</text>

<text font-family="Courier" font-size="9" y="86.4" transform="translate(0, 0)" fill="#F97583">const</text><text font-family="Courier" font-size="9" y="86.4" transform="translate(26.958152721774194, 0)" fill="#E1E4E8"> </text><text font-family="Courier" font-size="9" y="86.4" transform="translate(32.34978326612903, 0)" fill="#79B8FF">result</text><text font-family="Courier" font-size="9" y="86.4" transform="translate(64.69956653225806, 0)" fill="#E1E4E8"> </text><text font-family="Courier" font-size="9" y="86.4" transform="translate(70.0911970766129, 0)" fill="#F97583">=</text><text font-family="Courier" font-size="9" y="86.4" transform="translate(75.48282762096774, 0)" fill="#E1E4E8"> </text><text font-family="Courier" font-size="9" y="86.4" transform="translate(80.87445816532258, 0)" fill="#B392F0">hello</text><text font-family="Courier" font-size="9" y="86.4" transform="translate(107.83261088709678, 0)" fill="#E1E4E8">();</text></g>
</svg>
